<svg width="180" height="52" viewBox="0 0 180 52" fill="none" xmlns="http://www.w3.org/2000/svg">
<path d="M173.333 52H6.66667C3.00167 52 0 49.0734 0 45.5V6.5C0 2.92663 3.00167 2.74817e-06 6.66667 2.74817e-06H173.333C176.998 2.74817e-06 180 2.92663 180 6.5V45.5C180 49.0734 176.998 52 173.333 52Z" fill="black"/>
<path d="M173.333 1.04162C176.42 1.04162 178.932 3.4905 178.932 6.5V45.5C178.932 48.5095 176.42 50.9584 173.333 50.9584H6.66667C3.58 50.9584 1.06833 48.5095 1.06833 45.5V6.5C1.06833 3.4905 3.58 1.04162 6.66667 1.04162H173.333ZM173.333 2.74817e-06H6.66667C3.00167 2.74817e-06 0 2.92663 0 6.5V45.5C0 49.0734 3.00167 52 6.66667 52H173.333C176.998 52 180 49.0734 180 45.5V6.5C180 2.92663 176.998 2.74817e-06 173.333 2.74817e-06Z" fill="#A6A6A6"/>
<path d="M63.2224 13.3172C63.2224 14.4027 62.8891 15.2721 62.2324 15.9204C61.4774 16.6891 60.4941 17.0758 59.2891 17.0758C58.1374 17.0758 57.1541 16.6826 56.3474 15.9074C55.5391 15.1209 55.1357 14.1557 55.1357 13.0003C55.1357 11.8449 55.5391 10.8797 56.3474 10.0997C57.1541 9.31806 58.1374 8.9248 59.2891 8.9248C59.8624 8.9248 60.4091 9.04018 60.9307 9.25468C61.4507 9.4708 61.8741 9.7633 62.1807 10.1241L61.4841 10.8098C60.9491 10.1939 60.2207 9.89006 59.2891 9.89006C58.4491 9.89006 57.7207 10.1761 57.1024 10.7529C56.4907 11.3314 56.1841 12.0806 56.1841 13.0003C56.1841 13.9201 56.4907 14.6757 57.1024 15.2542C57.7207 15.8246 58.4491 16.1171 59.2891 16.1171C60.1807 16.1171 60.9307 15.8246 61.5224 15.2477C61.9124 14.8658 62.1341 14.3393 62.1924 13.6666H59.2891V12.7273H63.1624C63.2091 12.9304 63.2224 13.1271 63.2224 13.3172Z" fill="white" stroke="white" stroke-width="0.16" stroke-miterlimit="10"/>
<path d="M69.3685 10.0606H65.7302V12.5306H69.0102V13.4699H65.7302V15.9399H69.3685V16.897H64.7002V9.10352H69.3685V10.0606Z" fill="white" stroke="white" stroke-width="0.16" stroke-miterlimit="10"/>
<path d="M73.705 16.897H72.675V10.0606H70.4434V9.10352H75.9384V10.0606H73.705V16.897Z" fill="white" stroke="white" stroke-width="0.16" stroke-miterlimit="10"/>
<path d="M79.915 16.897V9.10352H80.9434V16.897H79.915Z" fill="white" stroke="white" stroke-width="0.16" stroke-miterlimit="10"/>
<path d="M85.5019 16.897H84.4802V10.0606H82.2402V9.10352H87.7419V10.0606H85.5019V16.897Z" fill="white" stroke="white" stroke-width="0.16" stroke-miterlimit="10"/>
<path d="M98.1446 15.8944C97.3563 16.6826 96.3796 17.0758 95.2146 17.0758C94.0429 17.0758 93.0663 16.6826 92.2779 15.8944C91.4913 15.1079 91.0996 14.1427 91.0996 13.0003C91.0996 11.8579 91.4913 10.8927 92.2779 10.1062C93.0663 9.31805 94.0429 8.9248 95.2146 8.9248C96.3729 8.9248 97.3496 9.31805 98.138 10.1127C98.9313 10.9057 99.3229 11.8644 99.3229 13.0003C99.3229 14.1427 98.9313 15.1079 98.1446 15.8944ZM93.0396 15.2412C93.6329 15.8246 94.3546 16.1171 95.2146 16.1171C96.0679 16.1171 96.7963 15.8246 97.3829 15.2412C97.9746 14.6578 98.2746 13.9087 98.2746 13.0003C98.2746 12.0919 97.9746 11.3428 97.3829 10.7594C96.7963 10.1761 96.0679 9.88355 95.2146 9.88355C94.3546 9.88355 93.6329 10.1761 93.0396 10.7594C92.4479 11.3428 92.1479 12.0919 92.1479 13.0003C92.1479 13.9087 92.4479 14.6578 93.0396 15.2412Z" fill="white" stroke="white" stroke-width="0.16" stroke-miterlimit="10"/>
<path d="M100.769 16.897V9.10352H102.019L105.905 15.1648H105.95L105.905 13.6665V9.10352H106.934V16.897H105.86L101.79 10.5368H101.745L101.79 12.0415V16.897H100.769Z" fill="white" stroke="white" stroke-width="0.16" stroke-miterlimit="10"/>
<path d="M90.8464 28.2783C87.7147 28.2783 85.1564 30.602 85.1564 33.8082C85.1564 36.9883 87.7147 39.3364 90.8464 39.3364C93.9847 39.3364 96.543 36.9883 96.543 33.8082C96.543 30.602 93.9847 28.2783 90.8464 28.2783ZM90.8464 37.1589C89.128 37.1589 87.6497 35.776 87.6497 33.8082C87.6497 31.8143 89.128 30.4558 90.8464 30.4558C92.5647 30.4558 94.0497 31.8143 94.0497 33.8082C94.0497 35.776 92.5647 37.1589 90.8464 37.1589ZM78.4314 28.2783C75.293 28.2783 72.7414 30.602 72.7414 33.8082C72.7414 36.9883 75.293 39.3364 78.4314 39.3364C81.568 39.3364 84.1214 36.9883 84.1214 33.8082C84.1214 30.602 81.568 28.2783 78.4314 28.2783ZM78.4314 37.1589C76.7114 37.1589 75.2281 35.776 75.2281 33.8082C75.2281 31.8143 76.7114 30.4558 78.4314 30.4558C80.1497 30.4558 81.6281 31.8143 81.6281 33.8082C81.6281 35.776 80.1497 37.1589 78.4314 37.1589ZM63.6581 29.9732V32.3229H69.4131C69.2447 33.6359 68.7947 34.6012 68.1047 35.2739C67.2647 36.0864 65.9564 36.9883 63.6581 36.9883C60.1164 36.9883 57.3431 34.2014 57.3431 30.7483C57.3431 27.2952 60.1164 24.5083 63.6581 24.5083C65.5731 24.5083 66.9664 25.2379 67.9947 26.1837L69.6931 24.5278C68.2547 23.1888 66.3414 22.1602 63.6581 22.1602C58.8014 22.1602 54.7197 26.013 54.7197 30.7483C54.7197 35.4835 58.8014 39.3364 63.6581 39.3364C66.2831 39.3364 68.2547 38.4979 69.8047 36.9249C71.3931 35.3763 71.8881 33.1988 71.8881 31.4405C71.8881 30.8945 71.8414 30.3924 71.7581 29.9732H63.6581ZM124.068 31.7948C123.6 30.5582 122.155 28.2783 119.211 28.2783C116.295 28.2783 113.866 30.5192 113.866 33.8082C113.866 36.9054 116.27 39.3364 119.491 39.3364C122.096 39.3364 123.6 37.7878 124.218 36.8859L122.285 35.6298C121.64 36.5495 120.761 37.1589 119.491 37.1589C118.23 37.1589 117.325 36.595 116.745 35.4835L124.33 32.4237L124.068 31.7948ZM116.335 33.6359C116.27 31.5039 118.033 30.4119 119.296 30.4119C120.286 30.4119 121.126 30.8945 121.406 31.5852L116.335 33.6359ZM110.17 39H112.663V22.75H110.17V39ZM106.086 29.51H106.003C105.443 28.8633 104.375 28.2783 103.021 28.2783C100.181 28.2783 97.5847 30.7093 97.5847 33.826C97.5847 36.9249 100.181 39.3364 103.021 39.3364C104.375 39.3364 105.443 38.7465 106.003 38.0803H106.086V38.8733C106.086 40.9874 104.928 42.1233 103.06 42.1233C101.536 42.1233 100.591 41.0508 100.201 40.1489L98.033 41.0313C98.658 42.497 100.313 44.3008 103.06 44.3008C105.983 44.3008 108.45 42.6238 108.45 38.5434V28.6147H106.086V29.51ZM103.235 37.1589C101.516 37.1589 100.078 35.7565 100.078 33.826C100.078 31.8777 101.516 30.4558 103.235 30.4558C104.928 30.4558 106.263 31.8777 106.263 33.826C106.263 35.7565 104.928 37.1589 103.235 37.1589ZM135.741 22.75H129.778V39H132.265V32.8429H135.741C138.503 32.8429 141.211 30.8945 141.211 27.7957C141.211 24.6984 138.496 22.75 135.741 22.75ZM135.806 30.5825H132.265V25.0104H135.806C137.663 25.0104 138.723 26.5135 138.723 27.7957C138.723 29.0534 137.663 30.5825 135.806 30.5825ZM151.178 28.2474C149.381 28.2474 147.513 29.0209 146.745 30.7353L148.951 31.6372C149.426 30.7353 150.3 30.4428 151.223 30.4428C152.513 30.4428 153.821 31.1984 153.841 32.5325V32.7032C153.391 32.4497 152.428 32.0743 151.243 32.0743C148.866 32.0743 146.445 33.3499 146.445 35.7305C146.445 37.908 148.391 39.3104 150.58 39.3104C152.253 39.3104 153.176 38.5743 153.756 37.7179H153.841V38.974H156.243V32.7405C156.243 29.8594 154.036 28.2474 151.178 28.2474ZM150.878 37.1524C150.065 37.1524 148.931 36.7592 148.931 35.776C148.931 34.5183 150.345 34.0357 151.568 34.0357C152.663 34.0357 153.176 34.2713 153.841 34.5817C153.646 36.0864 152.318 37.1524 150.878 37.1524ZM164.993 28.6033L162.135 35.6477H162.05L159.095 28.6033H156.413L160.853 38.4475L158.32 43.9254H160.918L167.76 28.6033H164.993ZM142.578 39H145.071V22.75H142.578V39Z" fill="white"/>
<path d="M13.9128 9.80044C13.5211 10.2002 13.2944 10.8226 13.2944 11.6286V40.3781C13.2944 41.1841 13.5211 41.8064 13.9128 42.2062L14.0094 42.2939L30.5328 26.1902V25.8099L14.0094 9.7062L13.9128 9.80044Z" fill="url(#paint0_linear_220_554)"/>
<path d="M36.0349 31.5605L30.5332 26.1899V25.8097L36.0415 20.439L36.1649 20.5089L42.6882 24.1278C44.5499 25.1548 44.5499 26.8448 42.6882 27.8783L36.1649 31.4907L36.0349 31.5605Z" fill="url(#paint1_linear_220_554)"/>
<path d="M36.1647 31.4912L30.5331 26.0003L13.9131 42.2065C14.5314 42.8402 15.5398 42.9166 16.6864 42.2828L36.1647 31.4912Z" fill="url(#paint2_linear_220_554)"/>
<path d="M36.1647 20.5091L16.6864 9.71751C15.5398 9.09025 14.5314 9.16663 13.9131 9.80038L30.5331 26L36.1647 20.5091Z" fill="url(#paint3_linear_220_554)"/>
<defs>
<linearGradient id="paint0_linear_220_554" x1="29.0657" y1="40.6775" x2="7.25556" y2="18.3081" gradientUnits="userSpaceOnUse">
<stop stop-color="#00A0FF"/>
<stop offset="0.0066" stop-color="#00A1FF"/>
<stop offset="0.2601" stop-color="#00BEFF"/>
<stop offset="0.5122" stop-color="#00D2FF"/>
<stop offset="0.7604" stop-color="#00DFFF"/>
<stop offset="1" stop-color="#00E3FF"/>
</linearGradient>
<linearGradient id="paint1_linear_220_554" x1="45.1124" y1="25.998" x2="12.8499" y2="25.998" gradientUnits="userSpaceOnUse">
<stop stop-color="#FFE000"/>
<stop offset="0.4087" stop-color="#FFBD00"/>
<stop offset="0.7754" stop-color="#FFA500"/>
<stop offset="1" stop-color="#FF9C00"/>
</linearGradient>
<linearGradient id="paint2_linear_220_554" x1="33.1024" y1="23.0154" x2="3.52611" y2="-7.31927" gradientUnits="userSpaceOnUse">
<stop stop-color="#FF3A44"/>
<stop offset="1" stop-color="#C31162"/>
</linearGradient>
<linearGradient id="paint3_linear_220_554" x1="9.72949" y1="51.7709" x2="22.9366" y2="38.2253" gradientUnits="userSpaceOnUse">
<stop stop-color="#32A071"/>
<stop offset="0.0685" stop-color="#2DA771"/>
<stop offset="0.4762" stop-color="#15CF74"/>
<stop offset="0.8009" stop-color="#06E775"/>
<stop offset="1" stop-color="#00F076"/>
</linearGradient>
</defs>
</svg>
